<svg width="87" height="86" viewBox="0 0 87 86" fill="none" xmlns="http://www.w3.org/2000/svg">
<path d="M83.6263 60.3195H82.2775V50.1456C82.2809 48.0997 81.8306 46.0782 80.9587 44.2248C80.0869 42.3714 78.8148 40.7316 77.233 39.4222C76.3014 38.6666 75.2771 38.0315 74.1847 37.5322L73.9284 36.1917H76.8823C77.9555 36.1917 78.9847 35.7681 79.7435 35.0139C80.5024 34.2598 80.9287 33.2369 80.9287 32.1704V29.4896C80.9287 28.423 80.5024 27.4002 79.7435 26.6461C78.9847 25.8919 77.9555 25.4683 76.8823 25.4683H71.7433L70.2596 18.0289C69.7754 15.5921 68.455 13.398 66.5239 11.8211C64.5928 10.2443 62.1708 9.38256 59.6715 9.38306H26.6526C24.1532 9.38256 21.7312 10.2443 19.8001 11.8211C17.8691 13.398 16.5486 15.5921 16.0644 18.0289L14.5807 25.4683H9.44174C8.36856 25.4683 7.33934 25.8919 6.58048 26.6461C5.82163 27.4002 5.39531 28.423 5.39531 29.4896V32.1704C5.39531 33.2369 5.82163 34.2598 6.58048 35.0139C7.33934 35.7681 8.36856 36.1917 9.44174 36.1917H12.4631L12.2068 37.5322C11.0879 38.0432 10.0405 38.6965 9.09105 39.4758C7.50925 40.7853 6.23718 42.425 5.3653 44.2784C4.49342 46.1318 4.04315 48.1533 4.0465 50.1992V60.3195H2.69769C2.33996 60.3195 1.99689 60.4607 1.74393 60.7121C1.49098 60.9635 1.34888 61.3044 1.34888 61.66V67.0217C1.34888 67.3772 1.49098 67.7181 1.74393 67.9695C1.99689 68.2209 2.33996 68.3621 2.69769 68.3621H9.44174V72.3834C9.44174 73.4499 9.86806 74.4728 10.6269 75.2269C11.3858 75.981 12.415 76.4047 13.4882 76.4047H24.2787C25.3518 76.4047 26.3811 75.981 27.1399 75.2269C27.8988 74.4728 28.3251 73.4499 28.3251 72.3834V68.3621H57.9989V72.3834C57.9989 73.4499 58.4253 74.4728 59.1841 75.2269C59.943 75.981 60.9722 76.4047 62.0454 76.4047H72.8359C73.909 76.4047 74.9383 75.981 75.6971 75.2269C76.456 74.4728 76.8823 73.4499 76.8823 72.3834V68.3621H83.6263C83.9841 68.3621 84.3271 68.2209 84.5801 67.9695C84.833 67.7181 84.9752 67.3772 84.9752 67.0217V61.66C84.9752 61.3044 84.833 60.9635 84.5801 60.7121C84.3271 60.4607 83.9841 60.3195 83.6263 60.3195ZM76.8823 28.1491C77.24 28.1491 77.5831 28.2903 77.836 28.5417C78.089 28.7931 78.2311 29.1341 78.2311 29.4896V32.1704C78.2311 32.5259 78.089 32.8669 77.836 33.1183C77.5831 33.3696 77.24 33.5109 76.8823 33.5109H73.3349L72.2694 28.1491H76.8823ZM59.6715 12.0639C60.8073 12.0662 61.93 12.3061 62.9665 12.768C64.0029 13.2299 64.9299 13.9034 65.6872 14.7448H20.6369C21.3941 13.9034 22.3211 13.2299 23.3576 12.768C24.394 12.3061 25.5167 12.0662 26.6526 12.0639H59.6715ZM9.44174 33.5109C9.08402 33.5109 8.74094 33.3696 8.48799 33.1183C8.23504 32.8669 8.09293 32.5259 8.09293 32.1704V29.4896C8.09293 29.1341 8.23504 28.7931 8.48799 28.5417C8.74094 28.2903 9.08402 28.1491 9.44174 28.1491H14.0547L12.9891 33.5109H9.44174ZM18.7081 18.5516C18.7936 18.1703 18.9017 17.7943 19.0318 17.4257H67.2922C67.4223 17.7943 67.5304 18.1703 67.616 18.5516L71.1768 36.5134C70.2106 36.305 69.2251 36.1971 68.2364 36.1917H18.0876C17.0989 36.1971 16.1134 36.305 15.1472 36.5134L18.7081 18.5516ZM6.74412 50.1456C6.74235 48.6647 7.03454 47.198 7.60398 45.8295C8.17341 44.461 9.0089 43.2176 10.0626 42.1705C11.1163 41.1233 12.3675 40.293 13.7446 39.7271C15.1216 39.1612 16.5975 38.8708 18.0876 38.8726H68.2364C69.7266 38.8708 71.2024 39.1612 72.5795 39.7271C73.9565 40.293 75.2077 41.1233 76.2614 42.1705C77.3151 43.2176 78.1506 44.461 78.7201 45.8295C79.2895 47.198 79.5817 48.6647 79.5799 50.1456V60.3195H55.3013V48.2556C55.3013 47.1891 54.875 46.1663 54.1161 45.4121C53.3573 44.658 52.3281 44.2343 51.2549 44.2343H35.0691C33.996 44.2343 32.9667 44.658 32.2079 45.4121C31.449 46.1663 31.0227 47.1891 31.0227 48.2556V60.3195H6.74412V50.1456ZM52.6037 49.5961H33.7203V48.2556C33.7203 47.9001 33.8624 47.5592 34.1154 47.3078C34.3683 47.0564 34.7114 46.9152 35.0691 46.9152H51.2549C51.6126 46.9152 51.9557 47.0564 52.2086 47.3078C52.4616 47.5592 52.6037 47.9001 52.6037 48.2556V49.5961ZM33.7203 52.2769H52.6037V54.9578H33.7203V52.2769ZM33.7203 57.6387H52.6037V60.3195H33.7203V57.6387ZM25.6275 72.3834C25.6275 72.7389 25.4854 73.0799 25.2324 73.3312C24.9795 73.5826 24.6364 73.7239 24.2787 73.7239H13.4882C13.1304 73.7239 12.7874 73.5826 12.5344 73.3312C12.2815 73.0799 12.1394 72.7389 12.1394 72.3834V68.3621H25.6275V72.3834ZM74.1847 72.3834C74.1847 72.7389 74.0426 73.0799 73.7896 73.3312C73.5367 73.5826 73.1936 73.7239 72.8359 73.7239H62.0454C61.6876 73.7239 61.3446 73.5826 61.0916 73.3312C60.8387 73.0799 60.6966 72.7389 60.6966 72.3834V68.3621H74.1847V72.3834ZM82.2775 65.6813H4.0465V63.0004H82.2775V65.6813Z" fill="#FFCB16" fill-opacity="0.93"/>
<path d="M18.8833 45.5747C13.596 45.5747 9.44165 48.2556 9.44165 51.6067C9.44165 54.9577 13.596 57.6386 18.8833 57.6386C24.1707 57.6386 28.325 54.9577 28.325 51.6067C28.325 48.2556 24.1707 45.5747 18.8833 45.5747ZM18.8833 54.9577C14.9043 54.9577 12.1393 53.1884 12.1393 51.6067C12.1393 50.0249 14.9043 48.2556 18.8833 48.2556C22.8623 48.2556 25.6274 50.0249 25.6274 51.6067C25.6274 53.1884 22.9298 54.9577 18.8833 54.9577Z" fill="#FFCB16" fill-opacity="0.93"/>
<path d="M67.4407 57.6386C72.728 57.6386 76.8824 54.9577 76.8824 51.6067C76.8824 48.2556 72.728 45.5747 67.4407 45.5747C62.1534 45.5747 57.999 48.2556 57.999 51.6067C57.999 54.9577 62.1534 57.6386 67.4407 57.6386ZM67.4407 48.2556C71.4871 48.2556 74.1848 50.0249 74.1848 51.6067C74.1848 53.1884 71.4871 54.9577 67.4407 54.9577C63.3943 54.9577 60.6966 53.1884 60.6966 51.6067C60.6966 50.0249 63.4617 48.2556 67.4407 48.2556Z" fill="#FFCB16" fill-opacity="0.93"/>
<path d="M35.4709 23.1712L27.3735 31.2183L29.281 33.1139L37.3784 25.0669L35.4709 23.1712Z" fill="#FFCB16" fill-opacity="0.93"/>
<path d="M46.2573 23.1755L38.1599 31.2225L40.0674 33.1182L48.1648 25.0711L46.2573 23.1755Z" fill="#FFCB16" fill-opacity="0.93"/>
<path d="M57.0568 23.1797L48.9595 31.2268L50.867 33.1225L58.9643 25.0754L57.0568 23.1797Z" fill="#FFCB16" fill-opacity="0.93"/>
</svg>
